<svg id="Layer_1" data-name="Layer 1" xmlns="http://www.w3.org/2000/svg" viewBox="0 0 1163.22 1371.85"><defs><style>.cls-1{fill:#fff;}</style></defs><path class="cls-1" d="M810.57,522.88c-3.94-51.86-27.79-101.72-67.14-140.34-38.94-38.19-88.9-61.54-140.7-65.78-7.27-.6-14.52-.9-21.57-.9-63.61,0-119,24.41-164.7,72.53-42.63,44.92-64.93,98.84-64.45,155.94.45,53.63,28.59,108.08,49.74,144.37,7.36,12.63,15.68,25.89,24.48,39.91,4.09,6.52,8.24,13.12,12.33,19.74,12.9,20.84,24.69,41.45,27.24,64.33.72,6.42.16,14.41-.39,22.14-.72,10.15-1.45,20.64.48,29.19,2,8.75,7.18,14,12.24,19.15a88.62,88.62,0,0,1,6.08,6.62c-3.87,10.09-2.57,22.71,3.11,31.19-6.36,11.42-7.4,28.12,0,38.64-6.27,11.29-6.77,23.88-1.22,34.35,6.35,12,19.59,19.13,35.42,19.13h0a60,60,0,0,0,7.69-.52c0,1.68,0,3.38,0,5,0,9.93-.07,21.19,10.23,29.58,10.08,8.21,32.56,8.85,39.2,8.85,22.55,0,48.78-5.67,54.79-21.56,2.77-7.26,2-12.54,1.23-18.14-.15-1.12-.31-2.25-.45-3.44a54.44,54.44,0,0,0,7.76.57c16.41,0,30.37-8,36.41-20.79,4.74-10.07,3.64-21.55-2.83-31.48,4.43-6.38,6.21-16.41,5.59-24.52-.47-6.23-2.26-11.35-5.13-15,4.79-7.75,7.11-20.38,3.81-30.48a65.78,65.78,0,0,1,8.11-10.7c4.28-4.86,8.69-9.87,10.51-18.37,2.4-11.31,1.48-21.39.6-31.13-.64-7-1.24-13.61-.52-20.13,2.67-24.09,15.82-47.23,25.48-62.54,4.9-7.77,9.72-15.2,14.38-22.38,18.31-28.21,35.61-54.88,50.8-92.21C801.54,603.42,814.3,572,810.57,522.88ZM607.72,1024.36c-4.71,2.35-13.91,3.81-24.54,3.81-10,0-20.13-1.28-26.1-3.26-.79-2.82-.77-8.79.1-11.25,4.34-2.2,11.15-2.47,16.05-2.47,3.84,0,8,.19,12,.4s8.42.39,12.5.39c2.73,0,5.14-.09,7.35-.27C607.23,1012.87,608.05,1016.8,607.72,1024.36ZM654,981.58c-9.17,4-22.7,4.55-33.69,4.55-6.16,0-12.54-.18-19.31-.39-7-.2-14.26-.4-21.49-.4-3.95,0-9,.25-14.89.54-7.38.37-15.75.79-23.84.79-29.29,0-31.21-5.8-31.3-7a3.29,3.29,0,0,1,.88-2.78c2.07-2.24,8.35-4.91,26.45-4.91,6.42,0,13,.31,19.32.6,5.35.25,10.41.48,14.6.48H611c4.48,0,9-.15,13.43-.3,4.18-.14,8.14-.27,11.84-.27,10.2,0,16.19,1.18,17.77,3.48C654.81,977.05,654.79,979,654,981.58Zm.13-37.29c-10.75,2.72-23.78,3.11-35.27,3.11-6.19,0-12.56-.13-19.3-.26-7.07-.15-14.38-.3-21.81-.3-3.8,0-8.74.27-14.45.58-7.28.39-15.53.84-23.53.84-21.17,0-27.5-3.39-29.38-5.41a3.18,3.18,0,0,1-.91-2.65c.14-2,3.16-6.64,28-6.64,6.48,0,13.15.29,19.61.56,5.61.24,10.91.47,15.4.47h38.5c4.61,0,9.19-.15,13.61-.29,4.1-.13,8-.26,11.58-.26,3.8,0,15.36,0,17.88,3.61.87,1.25.87,3.56,0,6.64Zm.72-39.48c-2.37,2.86-6.65,4-14.3,4-2.57,0-5.26-.12-8.11-.25s-6.08-.27-9.18-.27H579.55c-4,0-9.17.27-15.14.59-7.5.4-16,.87-24.15.87-20.44,0-27.51-3-29.84-5.46a3.21,3.21,0,0,1-.9-2.65c.31-4.44,9.78-7,26-7,7,0,14.33.43,20.83.79,5.38.31,10.47.6,14.45.6,8.88,0,17.26-.07,25.16-.15,7-.06,13.59-.12,19.78-.12,13.12,0,26.71.23,37.48,1.84,1.53,1.07,1.76,4.49,1.68,7.17ZM784.35,556c-2.84,30.53-17.15,69.76-41.37,113.46-7.26,13.1-16,26-24.5,38.47-21.76,32-44.25,65.1-47.9,108.92a185.86,185.86,0,0,0-.17,19.65c.33,12.51.71,26.7-4.77,30.86-2.45,1.85-9.72,4.06-30.47,4.06-9.74,0-20.19-.46-30.3-.89-8.71-.4-16.93-.74-23.57-.74-4.79,0-11.06.24-18.28.52-9.12.35-19.45.74-29.37.74-28.18,0-34.66-3.47-36.14-5-3-3.07-3.7-18.81-4.18-30.3-.3-7-.61-14.32-1.33-20.85-4.59-41.33-17.46-60.45-32.35-82.6-3.37-5-6.86-10.19-10.43-15.87-9.94-15.84-19.2-32.77-27.83-48.72C404.73,637,384,598.64,380,559.48c-9.18-89.61,47.27-147.86,64.79-163.58,36-32.3,86.74-51.61,135.7-51.61,4.24,0,8.51.15,12.71.43,52.76,3.59,98.81,23.65,133.17,58,15.51,15.51,65.53,72.41,58,153.32Z"/><path class="cls-1" d="M658.59,615.31c-.46,0-.92,0-1.38,0-6.42,0-12.08,3.39-18.07,7s-12,7.22-18.72,7.22a19.05,19.05,0,0,1-2.92-.23c.26-.63.54-1.25.82-1.88,1.5-3.36,3.2-7.18,3.09-12.17-.31-14.8-10.56-24-19.89-24-7.95,0-14.21,5.9-16.7,15.79-2.43,9.6.34,16.34,3,22.23a43.09,43.09,0,0,1-9.08-.3c3.49-8.29,5.06-19.21,2.33-27.24-1.9-5.57-5.62-9.28-10.75-10.73-7.74-2.18-15.4,1.24-19.87,8.82-4.58,7.75-5.34,18.37-2.24,27.32a20.54,20.54,0,0,1-8.89,2c-8.55,0-17.2-5.13-24.83-9.68-2.12-1.26-4.12-2.45-6.1-3.53a5.24,5.24,0,0,0-7.12,2.1,5.1,5.1,0,0,0-.58,1.78c-1.61,11.38,2.76,22.33,7,32.91,1.36,3.4,2.64,6.6,3.7,9.75,4.42,13.17,8.75,26.63,12.93,39.66,4.28,13.32,8.71,27.1,13.32,40.85.87,2.57,1.58,5.56,2.33,8.73,2.58,10.84,5.8,24.33,18.16,29.45a5.24,5.24,0,0,0,6.86-2.83,5.39,5.39,0,0,0,.41-2c.11-17.59-6.38-34-12.64-49.83-2.37-6-4.84-12.24-6.87-18.36-3.29-9.93-6.31-20.34-9.23-30.4s-5.92-20.31-9.2-30.33l1.39.22a50.52,50.52,0,0,0,12.38.89c3.94-.24,7.7-1.72,11-3,2.89-1.15,5.61-2.22,7.84-2.22h0c2.41,0,5.29,1.45,8.34,3,3.69,1.8,7.87,3.85,12.53,4,4.84.22,8.84-1.5,12.32-3,2.67-1.14,5-2.13,7.44-2.27,4.07-.22,8.47.61,13.19,1.51a76.58,76.58,0,0,0,14,1.74,31.79,31.79,0,0,0,5.92-.53c-2.88,9-5.85,18-8.76,26.76-3.43,10.39-7,21.13-10.41,32-1.87,5.86-4,11.84-6,17.66-5.92,16.83-12,34.24-13.46,51.77a5.23,5.23,0,0,0,4.8,5.65,3.1,3.1,0,0,0,.43,0,5.18,5.18,0,0,0,1.52-.22c12.42-3.76,17-19.39,20.74-31.94.67-2.28,1.32-4.46,2-6.44,5.29-16,10.59-33.27,15.71-50,7.28-23.71,14.8-48.23,22.76-70.69a5.25,5.25,0,0,0-3.19-6.7,5.71,5.71,0,0,0-1.35-.29Z"/></svg>