<svg id="Layer_1" data-name="Layer 1" xmlns="http://www.w3.org/2000/svg" viewBox="0 0 1163.22 1874.82"><defs><style>.cls-1{fill:#fff;}</style></defs><path class="cls-1" d="M2089.06,915.36C2079.1,784,2018.69,657.72,1919,559.9,1820.38,463.16,1693.82,404,1562.6,393.26c-18.39-1.5-36.77-2.26-54.62-2.26-161.13,0-301.48,61.81-417.18,183.7-108,113.79-164.47,250.37-163.27,395,1.14,135.85,72.43,273.77,126,365.69,18.65,32,39.73,65.58,62,101.09,10.38,16.53,20.88,33.23,31.24,50,32.67,52.78,62.54,105,69,162.95,1.82,16.26.41,36.51-1,56.09-1.8,25.7-3.66,52.27,1.22,73.92,5,22.18,18.2,35.58,31,48.53a223.3,223.3,0,0,1,15.41,16.75c-9.8,25.56-6.52,57.54,7.89,79-16.12,28.94-18.76,71.25,0,97.89-15.88,28.59-17.16,60.49-3.1,87,16.09,30.34,49.63,48.46,89.72,48.46h0a149.6,149.6,0,0,0,19.47-1.31c.11,4.26.09,8.56.08,12.79-.09,25.15-.18,53.66,25.92,74.93,25.52,20.78,82.46,22.4,99.3,22.4,57.11,0,123.55-14.35,138.78-54.61,7-18.37,5.09-31.76,3.11-45.94-.39-2.83-.79-5.7-1.14-8.72a137.12,137.12,0,0,0,19.65,1.45c41.58,0,76.92-20.18,92.23-52.66,12-25.5,9.22-54.6-7.18-79.74,11.22-16.16,15.74-41.57,14.18-62.1-1.21-15.8-5.73-28.75-13-37.87,12.12-19.63,18-51.63,9.65-77.22,6.55-11.21,13.65-19.27,20.54-27.1,10.84-12.31,22-25,26.61-46.52,6.1-28.65,3.77-54.18,1.52-78.86-1.61-17.73-3.14-34.47-1.31-51,6.77-61,40.07-119.62,64.54-158.41,12.41-19.68,24.62-38.49,36.43-56.69,46.38-71.45,90.19-139,128.67-233.57C2066.19,1119.38,2098.52,1039.88,2089.06,915.36ZM1575.24,2185.63c-11.93,5.94-35.23,9.64-62.14,9.64-25.43,0-51-3.25-66.13-8.25-2-7.16-1.93-22.27.27-28.5,11-5.58,28.24-6.26,40.66-6.26,9.71,0,20.24.49,30.43,1,10.49.49,21.34,1,31.68,1,6.91,0,13-.22,18.6-.68C1574,2156.52,1576.1,2166.46,1575.24,2185.63Zm117.34-108.38c-23.23,10.17-57.51,11.54-85.34,11.54-15.59,0-31.77-.47-48.9-1-17.75-.5-36.12-1-54.45-1-10,0-22.85.63-37.72,1.37-18.69.92-39.88,2-60.37,2-74.2,0-79.06-14.7-79.29-17.64-.28-3.78.91-5.63,2.23-7.05,5.25-5.67,21.14-12.42,67-12.42,16.26,0,32.87.77,48.93,1.51,13.56.63,26.38,1.22,37,1.22h102c11.34,0,22.83-.39,34-.76,10.6-.36,20.62-.7,30-.7,25.84,0,41,3,45,8.83C1694.54,2065.79,1694.47,2070.71,1692.58,2077.25Zm.34-94.46c-27.25,6.9-60.24,7.89-89.36,7.89-15.66,0-31.8-.33-48.88-.67-17.9-.37-36.41-.75-55.23-.75-9.63,0-22.14.68-36.62,1.46-18.44,1-39.34,2.13-59.59,2.13-53.63,0-69.65-8.58-74.43-13.7a8.07,8.07,0,0,1-2.29-6.71c.35-5.06,8-16.81,71-16.81,16.41,0,33.31.72,49.66,1.42,14.21.61,27.63,1.18,39,1.18h97.53c11.68,0,23.27-.38,34.47-.74,10.38-.33,20.2-.65,29.35-.65,9.62,0,38.89,0,45.28,9.14C1695,1969.15,1695,1975,1692.92,1982.79Zm1.81-100c-6,7.24-16.83,10.25-36.22,10.25-6.5,0-13.33-.31-20.54-.63-7.57-.35-15.4-.7-23.25-.7H1503.89c-10.16,0-23.22.7-38.35,1.51-19,1-40.47,2.18-61.17,2.18-51.78,0-69.67-7.52-75.57-13.83a8.07,8.07,0,0,1-2.28-6.69c.77-11.26,24.77-17.73,65.83-17.73,17.59,0,36.28,1.07,52.76,2,13.63.78,26.51,1.52,36.61,1.52,22.47,0,43.72-.2,63.72-.38,17.7-.16,34.41-.31,50.1-.31,33.23,0,67.66.57,94.94,4.65C1694.35,1867.35,1694.93,1876,1694.73,1882.81Zm327.92-883.44c-7.2,77.32-43.43,176.7-104.79,287.39-18.38,33.17-40.58,65.84-62.06,97.43-55.1,81.08-112.09,164.91-121.33,275.9-1.32,15.83-.86,33.08-.42,49.77.84,31.7,1.79,67.64-12.09,78.17-6.19,4.69-24.61,10.28-77.18,10.28-24.66,0-51.14-1.15-76.74-2.26-22.07-1-42.9-1.86-59.72-1.86-12.13,0-28,.61-46.29,1.31-23.1.88-49.28,1.88-74.39,1.88-71.39,0-87.8-8.78-91.55-12.55-7.69-7.76-9.37-47.63-10.59-76.74-.76-17.83-1.53-36.27-3.37-52.8-11.62-104.69-44.21-153.14-81.94-209.23-8.54-12.69-17.37-25.81-26.41-40.21-25.18-40.11-48.64-83-70.5-123.4-42.2-78-94.72-175.16-104.87-274.34-23.25-227,119.74-374.53,164.12-414.35C1253.75,511.91,1382.24,463,1506.25,463c10.74,0,21.57.37,32.2,1.09C1672.09,473.18,1788.73,524,1875.76,611,1915.05,650.29,2041.75,794.41,2022.65,999.37Z" transform="translate(-927.51 -391)"/><path class="cls-1" d="M1704.1,1149.5c-1.16-.1-2.32-.14-3.48-.14-16.28,0-30.61,8.59-45.77,17.68-15,9-30.51,18.29-47.42,18.29a47.34,47.34,0,0,1-7.41-.58c.66-1.58,1.37-3.16,2.09-4.77,3.8-8.51,8.11-18.17,7.83-30.81-.79-37.49-26.77-60.69-50.38-60.69-20.16,0-36,14.94-42.31,40-6.15,24.32.85,41.37,7.67,56.3a110.9,110.9,0,0,1-23-.75c8.85-21,12.83-48.66,5.9-69-4.82-14.12-14.23-23.52-27.23-27.18-19.59-5.53-39,3.14-50.32,22.33-11.62,19.64-13.53,46.53-5.68,69.21a51.88,51.88,0,0,1-22.51,5.11c-21.67,0-43.58-13-62.9-24.53-5.37-3.19-10.44-6.2-15.45-8.93a13.29,13.29,0,0,0-19.52,9.83c-4.06,28.83,7,56.55,17.79,83.36,3.44,8.6,6.69,16.72,9.37,24.69,11.2,33.37,22.16,67.47,32.75,100.46,10.85,33.75,22.06,68.66,33.75,103.48,2.19,6.51,4,14.08,5.9,22.1,6.54,27.47,14.69,61.64,46,74.62a13.3,13.3,0,0,0,18.4-12.19c.28-44.55-16.15-86.07-32-126.22-6-15.24-12.26-31-17.4-46.52-8.33-25.14-16-51.52-23.39-77s-15-51.45-23.31-76.83l3.52.57c9.07,1.48,18.58,3.06,31.36,2.25,10-.61,19.52-4.36,27.88-7.66,7.31-2.89,14.2-5.61,19.84-5.61h0c6.11.1,13.41,3.68,21.14,7.47,9.34,4.57,19.93,9.76,31.74,10.25,12.25.56,22.39-3.79,31.21-7.57,6.76-2.89,12.59-5.39,18.85-5.74,10.3-.56,21.45,1.55,33.4,3.81,11.52,2.17,23.43,4.42,35.48,4.42a81.52,81.52,0,0,0,15-1.34c-7.3,22.73-14.82,45.52-22.18,67.78-8.69,26.32-17.67,53.53-26.38,80.92-4.73,14.86-10.08,30-15.25,44.75-15,42.63-30.53,86.72-34.1,131.12a13.29,13.29,0,0,0,13.26,14.37,13,13,0,0,0,3.85-.57c31.45-9.52,43.15-49.1,52.54-80.9,1.7-5.76,3.34-11.29,5-16.32,13.41-40.52,26.83-84.27,39.8-126.58,18.43-60.07,37.48-122.17,57.64-179.06a13.29,13.29,0,0,0-11.48-17.7Z" transform="translate(-927.51 -391)"/></svg>