<svg id="Layer_1" data-name="Layer 1" xmlns="http://www.w3.org/2000/svg" viewBox="0 0 3076 2652"><defs><style>.cls-1{fill:#fff;}</style></defs><g id="talk-bubble-tirh-text"><path class="cls-1" d="M2457,1293.64c0-507.48-411.4-918.81-918.85-918.81S619.33,786.16,619.33,1293.64s411.36,918.78,918.77,918.78c158.3,0,307.25-40,437.24-110.5,145,83.41,418,244.83,418,244.83l-108.42-518.1A914.35,914.35,0,0,0,2457,1293.64Zm-470.38,380.12H1113.86a84.2,84.2,0,0,1,0-168.4h872.71a84.2,84.2,0,1,1,0,168.4Zm0-306.21H1113.86a84.19,84.19,0,0,1,0-168.38h872.71a84.19,84.19,0,1,1,0,168.38Zm0-306.19H1113.86a84.19,84.19,0,0,1,0-168.38h872.71a84.19,84.19,0,1,1,0,168.38Z"/></g></svg>