<?xml version="1.0" encoding="utf-8"?>
<!-- Generator: Adobe Illustrator 24.3.0, SVG Export Plug-In . SVG Version: 6.00 Build 0)  -->
<svg version="1.1" id="Layer_1" xmlns="http://www.w3.org/2000/svg" xmlns:xlink="http://www.w3.org/1999/xlink" x="0px" y="0px"
	 viewBox="0 0 3076 2652" style="enable-background:new 0 0 3076 2652;" xml:space="preserve">
<style type="text/css">
	.st0{fill:#FFFFFF;}
	.st1{fill:#CECECE;}
</style>
<g id="Layer_4">
	<path class="st0" d="M2343.1,1572.9c-0.4-8.6-1-17.1-1.6-25.7c-0.3-4.3-0.7-8.5-1-12.8c-0.7-8.5-1.6-17-2.6-25.4s-2-16.8-3.2-25.2
		c-1.8-12.6-3.8-25-6-37.4c-19.3-107.9-56.1-211.8-109.1-307.8c-1.7-3.1-3.5-6.3-5.2-9.4c-20.5-36.3-43.3-71.3-68.2-104.8
		c-1.4-1.9-2.8-3.8-4.2-5.6c-23.4-31.1-48.6-60.8-75.5-89l-0.5-0.6c-36.1-37.8-75.1-72.8-116.6-104.6c-19.2-14.7-39-28.8-59.2-42.1
		c-20.3-13.4-41.1-26-62.3-37.8c-7.1-4-14.2-7.8-21.4-11.6c-7.2-3.8-14.4-7.5-21.7-11.1c-4.8-2.4-9.7-4.7-14.5-7
		c-8.7-4.2-17.5-8.2-26.4-12.1l-6.8-3c-6.4-2.7-12.8-5.4-19.2-8.1c-7.6-3.1-15.2-6.1-22.9-9c-3.8-1.5-7.7-2.9-11.5-4.3
		c-4.8-1.8-9.7-3.5-14.6-5.2c-6.8-2.4-13.6-4.7-20.4-6.9c-3.9-1.3-7.9-2.5-11.8-3.8c-7.9-2.5-15.8-4.8-23.8-7.1
		c-19.9-5.7-40.1-10.7-60.5-15.2c-8.2-1.8-16.4-3.4-24.6-5s-16.5-3-24.8-4.4c-12.4-2.1-25-3.9-37.6-5.5c-8.4-1.1-16.9-2-25.3-2.9
		c-4.2-0.4-8.5-0.8-12.7-1.2c-8.5-0.7-17-1.4-25.6-2c-21.4-1.3-43-2-64.7-2s-43.3,0.7-64.7,2c-8.5,0.5-17.1,1.2-25.6,2
		c-4.2,0.4-8.5,0.8-12.7,1.2c-8.5,0.9-16.9,1.8-25.3,2.9c-12.6,1.6-25.2,3.4-37.6,5.5c-8.3,1.4-16.6,2.9-24.8,4.4
		c-8.2,1.6-16.4,3.2-24.6,5c-20.4,4.4-40.6,9.5-60.5,15.2c-8,2.3-15.9,4.6-23.8,7.1c-3.9,1.2-7.9,2.5-11.8,3.8
		c-6.8,2.2-13.6,4.5-20.4,6.9c-4.9,1.7-9.8,3.4-14.6,5.2c-3.8,1.4-7.7,2.9-11.5,4.3c-7.7,2.9-15.3,5.9-22.9,9
		c-6.4,2.6-12.8,5.3-19.2,8.1l-6.8,3c-8.8,3.9-17.6,7.9-26.3,12.1c-4.9,2.3-9.7,4.7-14.5,7c-7.3,3.6-14.5,7.3-21.7,11.1
		s-14.3,7.7-21.4,11.6c-21.3,11.9-42,24.5-62.3,37.8s-40,27.4-59.2,42.1C683,856.6,644.1,891.5,608,929.4l-0.5,0.6
		c-26.8,28.2-52,57.9-75.5,89c-1.4,1.9-2.8,3.8-4.2,5.6c-24.9,33.5-47.7,68.5-68.2,104.8c-1.8,3.1-3.5,6.2-5.2,9.4
		c-53,95.9-89.8,199.9-109.1,307.8c-2.2,12.4-4.2,24.9-6,37.4c-1.2,8.4-2.2,16.8-3.2,25.2s-1.8,16.9-2.6,25.4
		c-0.4,4.3-0.7,8.5-1.1,12.8c-0.7,8.5-1.2,17.1-1.6,25.7c-0.1,1.6-0.1,3.3-0.2,4.9c-0.2,3.7-0.3,7.4-0.5,11.2
		c-0.4,11.9-0.6,23.8-0.6,35.8c0,2.8,0,5.5,0,8.2c0,1.6,0,3.2,0.1,4.8c0,2.2,0.1,4.4,0.1,6.6c0.2,10.8,0.6,21.6,1.1,32.3
		c20.7,407.8,283.9,751.7,648.2,890.2c3.8,1.5,7.7,2.9,11.5,4.3c11.6,4.2,23.2,8.3,35,12.1c3.9,1.3,7.8,2.5,11.8,3.8
		c23.7,7.3,47.7,13.8,72.1,19.5c8.1,1.9,16.3,3.7,24.5,5.3c20.5,4.2,41.2,7.8,62.1,10.7c4.2,0.6,8.4,1.1,12.6,1.7
		c8.4,1.1,16.8,2,25.3,2.9c4.2,0.4,8.5,0.8,12.7,1.2c8.5,0.8,17,1.4,25.6,1.9c21.4,1.3,43,2,64.7,2s43.3-0.7,64.7-2
		c8.6-0.5,17.1-1.2,25.6-1.9c4.3-0.4,8.5-0.8,12.7-1.2c8.5-0.9,16.9-1.8,25.3-2.9c4.2-0.6,8.4-1.1,12.6-1.7
		c20.9-2.9,41.6-6.5,62.1-10.7c8.2-1.7,16.4-3.5,24.5-5.3c24.4-5.7,48.4-12.2,72.1-19.5c4-1.2,7.9-2.5,11.8-3.8
		c11.8-3.8,23.4-7.9,35-12.1c3.9-1.4,7.7-2.8,11.5-4.3c364.4-138.5,627.6-482.4,648.2-890.2c0.7-12.9,1.1-25.8,1.2-38.8
		c0.1-4.3,0.1-8.7,0.1-13C2344.4,1607.4,2344,1590.1,2343.1,1572.9z M1337,2463c-462.9,0-838.2-375.3-838.2-838.2
		S874,786.6,1337,786.6s838.2,375.3,838.2,838.2S1799.9,2463,1337,2463z"/>
	<path class="st0" d="M1337,961c-366.6,0-663.8,297.2-663.8,663.8s297.1,663.8,663.8,663.8s663.8-297.2,663.8-663.8
		S1703.5,961,1337,961z M1337,2128.1c-278,0-503.3-225.3-503.3-503.3s225.3-503.3,503.3-503.3s503.3,225.3,503.3,503.3
		S1614.9,2128.1,1337,2128.1z"/>
	<path class="st0" d="M1337,1276.4c-194,0-351.2,157.2-351.2,351.2s157.2,351.2,351.2,351.2s351.2-157.2,351.2-351.2
		S1530.9,1276.4,1337,1276.4z M1337,1785.1c-93.1,0-168.6-75.5-168.6-168.6s75.5-168.6,168.6-168.6s168.6,75.5,168.6,168.6l0,0
		C1505.6,1709.6,1430.1,1785.1,1337,1785.1C1337,1785.1,1337,1785.1,1337,1785.1z"/>
	<path class="st0" d="M2707.3,12.1l0.3,244.2l241.6-1.4l-371.4,371.4l-188.2-4.6L1373.3,1637.8c-12.9,12.9-33.8,12.9-46.8,0
		l-2.7-2.7c-12.9-12.9-12.9-33.8,0-46.8L2340.7,571.6l-6-186.9L2707.3,12.1z"/>
	<path class="st1" d="M2707.7,256.3l241.6-1.4l-371.4,371.4l-188.2-4.6L1373.3,1637.8c-12.9,12.9-33.8,12.9-46.8,0l-1.3-1.3
		L2707.7,254.1V256.3z"/>
</g>
</svg>
