<svg id="Layer_1" data-name="Layer 1" xmlns="http://www.w3.org/2000/svg" viewBox="0 0 1759.19 1895.77"><defs><style>.cls-1,.cls-2{fill:#fff;}.cls-2,.cls-3{fill-rule:evenodd;}.cls-3{fill:#fefefe;}</style></defs><path class="cls-1" d="M1656.23,638.32l-6.32-3.16L1472.76,508.6,757.68,1562.17c63.21,44.38-63.35,367.17,0,411.4,56.89,41.12,303.7-196.2,360.59-155,237.43-351.24,474.63-702.48,715.1-1053.65ZM960.09,1692l-34.77-25.41,689.81-1022,15.82,12.7,9.48,6.31,9.48,6.34Z" transform="translate(-646.91 -293)"/><path class="cls-2" d="M1687.85,303l123.39,88.58,9.49,6.32,129.71,91.73c28.57,19,28.57,66.51,0,107.58l-82.19,123.43L1687.85,594l-6.34-6.32L1501.21,458l82.32-117.07c28.45-44.26,72.7-60.12,104.32-37.94Z" transform="translate(-646.91 -293)"/><rect class="cls-1" y="1734.33" width="1759.19" height="161.44"/><path class="cls-3" d="M792.45,1862.81c0,9.51,3.15,19,9.47,22.15,6.33,6.3,15.82,6.3,22.14,3.16l167.76-91.77L827.23,1676.12Z" transform="translate(-646.91 -293)"/></svg>