<svg id="Layer_1" data-name="Layer 1" xmlns="http://www.w3.org/2000/svg" viewBox="0 0 2052.34 1248.32"><defs><style>.cls-1{fill:#fff;}</style></defs><path class="cls-1" d="M2186.6,1875.92h-72.78V1438.56c0-407-331.14-738.17-738.2-738.17H1360c-407.05,0-738.2,331.14-738.2,738.17v437.36H549V1438.56c0-447.16,363.82-811,811-811h15.64c447.17,0,811,363.8,811,811Z" transform="translate(-549 -627.6)"/><path class="cls-1" d="M566.56,1869.19a12.12,12.12,0,0,1-12.13-12.13V1419.73C554.43,985.92,907.34,633,1341.12,633h15.66a12.13,12.13,0,1,1,0,24.26h-15.66c-420.41,0-762.43,342-762.43,762.46v437.33A12.12,12.12,0,0,1,566.56,1869.19Z" transform="translate(-549 -627.6)"/><path class="cls-1" d="M613.32,1621.2H959.63c18.9,0,34.21,7.66,34.21,17.1v.35c0,9.45-15.31,17.11-34.21,17.11H613.32c-18.89,0-34.21-7.66-34.21-17.11v-.35C579.11,1628.86,594.43,1621.2,613.32,1621.2Z" transform="translate(-549 -627.6)"/><path class="cls-1" d="M614.31,1382h346.3c18.9,0,34.22,7.66,34.22,17.1v.35c0,9.45-15.32,17.11-34.22,17.11H614.31c-18.9,0-34.22-7.66-34.22-17.11v-.35C580.09,1389.61,595.41,1382,614.31,1382Z" transform="translate(-549 -627.6)"/><path class="cls-1" d="M663.38,1146.77h346.3c18.9,0,34.22,7.66,34.22,17.11v.34c0,9.45-15.32,17.11-34.22,17.11H663.38c-18.9,0-34.22-7.66-34.22-17.11v-.34C629.16,1154.43,644.48,1146.77,663.38,1146.77Z" transform="translate(-549 -627.6)"/><path class="cls-1" d="M778,943.82h346.3c18.9,0,34.21,7.66,34.21,17.11v.34c0,9.45-15.31,17.11-34.21,17.11H778c-18.9,0-34.22-7.66-34.22-17.11v-.34C743.73,951.48,759.05,943.82,778,943.82Z" transform="translate(-549 -627.6)"/><path class="cls-1" d="M946.17,784.93h346.3c18.9,0,34.22,7.66,34.22,17.11v.34c0,9.45-15.32,17.11-34.22,17.11H946.17c-18.9,0-34.22-7.66-34.22-17.11V802C912,792.59,927.27,784.93,946.17,784.93Z" transform="translate(-549 -627.6)"/><path class="cls-1" d="M1156.19,682h346.3c18.9,0,34.22,7.66,34.22,17.11v.34c0,9.45-15.32,17.11-34.22,17.11h-346.3c-18.9,0-34.22-7.66-34.22-17.11v-.34C1122,689.62,1137.29,682,1156.19,682Z" transform="translate(-549 -627.6)"/><path class="cls-1" d="M1395.74,646.7H1742c18.9,0,34.22,7.66,34.22,17.11v.35c0,9.45-15.32,17.11-34.22,17.11h-346.3c-18.9,0-34.22-7.66-34.22-17.11v-.35C1361.52,654.36,1376.84,646.7,1395.74,646.7Z" transform="translate(-549 -627.6)"/><path class="cls-1" d="M1635.28,682h346.3c18.9,0,34.22,7.66,34.22,17.11v.34c0,9.45-15.32,17.11-34.22,17.11h-346.3c-18.9,0-34.22-7.66-34.22-17.11v-.34C1601.06,689.62,1616.38,682,1635.28,682Z" transform="translate(-549 -627.6)"/><path class="cls-1" d="M1845.3,784.93h346.31c18.89,0,34.22,7.66,34.22,17.11v.34c0,9.45-15.33,17.11-34.22,17.11H1845.3c-18.89,0-34.21-7.66-34.21-17.11V802C1811.09,792.59,1826.41,784.93,1845.3,784.93Z" transform="translate(-549 -627.6)"/><path class="cls-1" d="M2013.52,943.82h346.31c18.89,0,34.21,7.66,34.21,17.11v.34c0,9.45-15.32,17.11-34.21,17.11H2013.52c-18.89,0-34.21-7.66-34.21-17.11v-.34C1979.31,951.48,1994.63,943.82,2013.52,943.82Z" transform="translate(-549 -627.6)"/><path class="cls-1" d="M2128.09,1146.77H2474.4c18.89,0,34.21,7.66,34.21,17.11v.34c0,9.45-15.32,17.11-34.21,17.11H2128.09c-18.89,0-34.21-7.66-34.21-17.11v-.34C2093.88,1154.43,2109.2,1146.77,2128.09,1146.77Z" transform="translate(-549 -627.6)"/><path class="cls-1" d="M2177.17,1382h346.3c18.9,0,34.21,7.66,34.21,17.1v.35c0,9.45-15.31,17.11-34.21,17.11h-346.3c-18.9,0-34.22-7.66-34.22-17.11v-.35C2143,1389.61,2158.27,1382,2177.17,1382Z" transform="translate(-549 -627.6)"/><path class="cls-1" d="M2178.15,1621.2h346.3c18.9,0,34.22,7.66,34.22,17.1v.35c0,9.45-15.32,17.11-34.22,17.11h-346.3c-18.9,0-34.22-7.66-34.22-17.11v-.35C2143.93,1628.86,2159.25,1621.2,2178.15,1621.2Z" transform="translate(-549 -627.6)"/><path class="cls-1" d="M2601.34,1875.92h-72.79V1438.56c0-407-331.14-738.17-738.17-738.17h-15.66c-407.06,0-738.2,331.14-738.2,738.17v437.36H963.73V1438.56c0-447.16,363.82-811,811-811h15.66c447.16,0,811,363.8,811,811Z" transform="translate(-549 -627.6)"/><path class="cls-1" d="M976,1869.19a12.12,12.12,0,0,1-12.13-12.13V1419.73c0-433.81,352.92-786.72,786.7-786.72h15.66a12.13,12.13,0,0,1,0,24.26h-15.66c-420.42,0-762.44,342-762.44,762.46v437.33A12.12,12.12,0,0,1,976,1869.19Z" transform="translate(-549 -627.6)"/></svg>