<?xml version="1.0" encoding="utf-8"?>
<!-- Generator: Adobe Illustrator 24.3.0, SVG Export Plug-In . SVG Version: 6.00 Build 0)  -->
<svg version="1.1" id="Layer_1" xmlns="http://www.w3.org/2000/svg" xmlns:xlink="http://www.w3.org/1999/xlink" x="0px" y="0px"
	 viewBox="0 0 3076 2652" style="enable-background:new 0 0 3076 2652;" xml:space="preserve">
<style type="text/css">
	.st0{fill:none;stroke:#FFFFFF;stroke-width:200;stroke-linecap:round;stroke-linejoin:round;stroke-miterlimit:10;}
</style>
<g>
	<path class="st0" d="M2688.1,982.5c0-321.2-261.3-582.5-582.4-582.5c-235.7,0-439,140.7-530.6,342.4
		C1483.5,540.7,1280.2,400,1044.6,400c-321.3,0-582.5,261.3-582.5,582.5c0,67.8,11.6,132.7,33,193.3
		c24.4,68.9,61.3,131.9,108.1,186.2c20,23.2,41.6,44.8,65,64.6l888.4,882.5c5.5,5.5,12.6,8.2,19.8,8.2c7.3,0,14.4-2.7,19.9-8.2
		l921.4-915.5l-0.1-0.1c59.7-59.9,106.5-132.5,135.9-213.6C2675.9,1118.3,2688.1,1051.8,2688.1,982.5z"/>
</g>
<path class="st0" d="M2058,823.7c0,0,225.9,6.7,248.7,203.1"/>
</svg>
