<svg id="Layer_2" data-name="Layer 2" xmlns="http://www.w3.org/2000/svg" viewBox="0 0 2946.89 1373.23"><defs><style>.cls-1{fill:#fff;}</style></defs><path class="cls-1" d="M1843.33,835.11h-60.15c0-108.89-110.47-197.11-246.64-197.11S1289.9,726.22,1289.9,835.11h-60.14c-123.85-121.4-293.2-196.5-480.37-196.5-379,0-686.28,307.26-686.28,686.31s307.27,686.31,686.28,686.31c189.43,0,360.86-76.75,485.13-200.82h604.11c124.18,124.06,295.7,200.79,485.06,200.79,379,0,686.31-307.27,686.31-686.32s-307.29-686.27-686.31-686.27C2136.59,638.61,1967.18,713.71,1843.33,835.11ZM749.39,1919.91c-328.62,0-595-266.38-595-595s266.39-595,595-595,595,266.38,595,595S1078,1919.91,749.39,1919.91Zm2169.29-595c0,328.59-266.43,595-595,595s-595-266.37-595-595,266.37-595,595-595S2918.68,996.29,2918.68,1324.88Z" transform="translate(-63.11 -638)"/><path class="cls-1" d="M154.38,1324.92c0,328.61,266.39,595,595,595s595-266.38,595-595-266.42-595-595-595S154.38,996.3,154.38,1324.92Zm1141.31,0c0,301.71-244.59,546.32-546.3,546.32s-546.32-244.61-546.32-546.32S447.64,778.6,749.39,778.6,1295.69,1023.2,1295.69,1324.92Z" transform="translate(-63.11 -638)"/><path class="cls-1" d="M406.78,1324.92c0,189.21,153.45,342.53,342.61,342.53S1092,1514.13,1092,1324.92,938.51,982.36,749.39,982.36,406.78,1135.74,406.78,1324.92Zm467.12,0a124.55,124.55,0,1,1-124.51-124.53A124.51,124.51,0,0,1,873.9,1324.92Zm-74.78-278.58a13.85,13.85,0,0,1,2,12.64l-16.78,49.39a13.71,13.71,0,0,1-12.14,9.24A304.88,304.88,0,0,0,552,1231.93,13.73,13.73,0,0,1,537,1236.4l-48.55-16.47a14,14,0,0,1-8.72-17.76l1.91-3.6c70.72-98.21,185.31-157.33,306.2-158A13.89,13.89,0,0,1,799.12,1046.34Z" transform="translate(-63.11 -638)"/><path class="cls-1" d="M1728.69,1324.88c0,328.59,266.37,595,595,595s595-266.37,595-595-266.43-595-595-595S1728.69,996.29,1728.69,1324.88Zm1141.24,0c0,301.75-244.55,546.31-546.24,546.31s-546.36-244.56-546.36-546.31,244.59-546.32,546.36-546.32S2869.93,1023.15,2869.93,1324.88Z" transform="translate(-63.11 -638)"/><path class="cls-1" d="M1981.06,1324.88c0,189.2,153.45,342.57,342.63,342.57s342.53-153.37,342.53-342.57-153.36-342.54-342.53-342.54S1981.06,1135.7,1981.06,1324.88Zm467.23,0a124.61,124.61,0,1,1-124.6-124.54A124.61,124.61,0,0,1,2448.29,1324.88ZM2373.4,1046.3a13.87,13.87,0,0,1,2,12.68l-16.76,49.37a13.74,13.74,0,0,1-12.16,9.26,304.47,304.47,0,0,0-220.15,114.32,13.68,13.68,0,0,1-15,4.41l-48.61-16.45a14.05,14.05,0,0,1-8.69-17.72l1.92-3.63a381.46,381.46,0,0,1,306.17-158.06A14,14,0,0,1,2373.4,1046.3Z" transform="translate(-63.11 -638)"/></svg>